PathFileType	4	(X/Y/Z)	32_2_38_p0_0-444_filt_butterworth.trc
DataRate	CameraRate	NumFrames	NumMarkers	Units	OrigDataRate	OrigDataStartFrame	OrigNumFrames
60.0	60.0	6	27	m	60.0	55	444
Frame#	Time	RHip			RKnee			RAnkle			RBigToe			RSmallToe			RHeel			LHip			LKnee			LAnkle			LBigToe			LSmallToe			LHeel			Neck			Head			Nose			RShoulder			RElbow			RWrist			RThumb			RIndex			RPinky			LShoulder			LElbow			LWrist			LThumb			LIndex			LPinky			
		X1	Y1	Z1	X2	Y2	Z2	X3	Y3	Z3	X4	Y4	Z4	X5	Y5	Z5	X6	Y6	Z6	X7	Y7	Z7	X8	Y8	Z8	X9	Y9	Z9	X10	Y10	Z10	X11	Y11	Z11	X12	Y12	Z12	X13	Y13	Z13	X14	Y14	Z14	X15	Y15	Z15	X16	Y16	Z16	X17	Y17	Z17	X18	Y18	Z18	X19	Y19	Z19	X20	Y20	Z20	X21	Y21	Z21	X22	Y22	Z22	X23	Y23	Z23	X24	Y24	Z24	X25	Y25	Z25	X26	Y26	Z26	X27	Y27	Z27	
55	0.9166666666666666	0.3414977907029803	0.45788649392131575	1.0675560116984588	0.3392675296743134	0.48226952880197743	1.4968543003601038	0.3414214036211917	0.5237965967115294	1.9275126806635317	0.3183680640051575	0.3397475726555374	1.9270575686830766	0.3762411364712298	0.3298199039273824	1.9117852767762629	0.31210428455766615	0.6149145948221127	2.0269112798843167	0.15112907803811376	0.4720961076868053	1.0726079623545082	0.14474701747670826	0.5022356951337908	1.5063528860075381	0.14703485349590856	0.5243366824448866	1.9463054016467014	0.15524882749265925	0.3446559497026034	1.9326675318216124	0.09584860813543115	0.3845385712460879	1.9425674545331815	0.16150361662664464	0.5583481678782455	1.9940938466771383	0.25032760798991305	0.44525071250847403	0.4969273741989933	0.24594244327689785	0.43768288530723193	0.26062788555469807	0.25525039559584073	0.3229807602224702	0.368142280925177	0.4008461244552648	0.43658381175609823	0.5818898990430021	0.4945785495015098	0.4573284278429946	0.8340686514841968	0.42094216947913116	0.386188930539584	1.039314131833107	0.35838917157104905	0.3344899063461048	1.1369746770434055	0.3661957319920446	0.34411983320326267	1.1555894824462236	0.4031008517009991	0.4048207806464334	1.1724135915872462	0.0825821048463302	0.4564843505360844	0.5805557990321842	0.014487377306433763	0.4950958914620255	0.838054485006656	0.09565367204928793	0.3722763317070675	1.023572020597768	0.12587879083171027	0.33116409170170813	1.1093069145925207	0.11482429356307829	0.32555946629666277	1.1513955917497225	0.06205602619595623	0.37036148775798683	1.1326592890254186
56	0.9333333333333332	0.34106517827171484	0.4662368949674447	1.0695624892177786	0.3391944165358619	0.48240412785501724	1.4981067000568384	0.3399057753545397	0.5239904306196606	1.9264730822754426	0.31833947339792995	0.3398938297976831	1.9270890428470118	0.3762687707285415	0.3298960356646854	1.911732860698806	0.31217668551792027	0.6152237958100528	2.0266493784706943	0.14862095891231197	0.48118914320749456	1.0766480324464918	0.14490923676483589	0.5021887876354603	1.5068832924235835	0.14703098960145128	0.5242934688452042	1.946214108792719	0.1552013646073722	0.34116435750241003	1.9317850495882998	0.09450270226691854	0.3891035372373275	1.9444678278566712	0.16164385363423436	0.5582541975160393	1.9934997743331306	0.2503129641115815	0.44520558839580926	0.4969070193891792	0.24696629165178735	0.4345880594651328	0.2588868035598814	0.25487496344799665	0.3205064055669839	0.3670709956727931	0.4008194426498396	0.43663929836518356	0.5818920544746693	0.4941430599238255	0.45685192121315205	0.8362251804414745	0.41935236190990943	0.38639066188827315	1.0408615669092371	0.35772607721873634	0.33414083633022434	1.1370901975910899	0.36356464922781595	0.3395875160893567	1.1540362753140756	0.40075987336196806	0.4001804788521266	1.173318694394299	0.08257587545800672	0.4566372917347815	0.5796927031674547	0.014402051450674122	0.4954054106753725	0.8374422377266726	0.09682777681580669	0.3701023230791965	1.0242470164747222	0.12653542182592137	0.32890039549049144	1.1132715633979282	0.1171992948803829	0.3204313505888152	1.1560720980962569	0.06139070360381313	0.36650570750386763	1.135177444455299
57	0.95	0.34131892696742583	0.4696683176635561	1.0704124255615184	0.3391746119967996	0.4822070695094809	1.5012255688584595	0.33852398978956	0.5239502627456877	1.9258627158172517	0.31841185837036995	0.3382404485350684	1.925919548874079	0.37630441336417886	0.3298835691700965	1.9117001796050752	0.31201921128878973	0.6151850927551697	2.025975043348039	0.14751173991226008	0.48271835607793423	1.0775968164851935	0.1450575712957406	0.5017783039015267	1.5080918633534206	0.14702359574229915	0.5242797710153146	1.9461838415385069	0.15448196392604568	0.3385006318156526	1.9299787815368057	0.09380086849818199	0.3912403141642032	1.9461263478848667	0.161614700894276	0.5579185712063449	1.9930850962799136	0.2503060274928742	0.44513937648992724	0.49688663542117956	0.2479348812993242	0.43058436535895317	0.2573166546956872	0.25430809290808276	0.3171772445633134	0.36563470256899255	0.4008127377648399	0.4366180024651455	0.5818988382442298	0.4928852135105824	0.4562991385494509	0.8386814421181426	0.41634655972571144	0.3879340477424974	1.0446931826216956	0.3566243087362557	0.3335895467922334	1.1387183881260814	0.36124166560101595	0.33514777267331936	1.1525652096475194	0.3967429479853328	0.3894691861363268	1.1724752405970613	0.0825396512475191	0.45648088073099385	0.5797648812565088	0.014349658077309273	0.49589716643676374	0.8374679516530024	0.09841134166904597	0.367529397047454	1.0257289454568077	0.12802024356420158	0.3249021114100971	1.1188748632900345	0.11954289661726968	0.3156682386931132	1.1598559925702447	0.06058259505315319	0.3651679191027133	1.1400019382044237
58	0.9666666666666668	0.34278374342936424	0.4658372853997988	1.0690387235619436	0.33937190662005423	0.4819184383963322	1.5045979818126496	0.33739611956273907	0.5226716957154651	1.9249610290267607	0.31865816623403653	0.33341449173561755	1.9226228690956262	0.37633460645604916	0.32982611412777746	1.911697435904338	0.31103438439603315	0.6134101587017465	2.024636862965119	0.1476761885131564	0.47653965110115876	1.0753945027931764	0.14485530738568858	0.5008577911651784	1.5098655499109133	0.1470094891688734	0.5243429315936889	1.9462270751842485	0.1535260148670932	0.337448357515968	1.9289825599684645	0.09425370892116842	0.3891728759254724	1.9468033142635088	0.1615289387638375	0.5577495757597953	1.9930241785901615	0.25030494737393816	0.445068182096177	0.4968637200388278	0.24781795033973084	0.42779059292642496	0.256321646154806	0.25338331142932197	0.31443474671328464	0.3645243578309529	0.40083630630577266	0.43655798210247126	0.5819112359838934	0.4911819553510575	0.45571949373875553	0.8407675476070031	0.41299740147761793	0.3904888720169508	1.048873622260164	0.355001000397587	0.33275476553869	1.1417272587655904	0.3599048841746802	0.33202889320125895	1.151729197635376	0.3933094051572508	0.37228482820062486	1.1684451144032593	0.08218418386374951	0.45583168074114294	0.5806935845656254	0.01441426645528561	0.4963271837998513	0.8389294036015097	0.10024642150660594	0.364340654683051	1.0278671732928049	0.13000088028764592	0.3201769815310359	1.126523174961878	0.1215444833706037	0.3112811503823962	1.1631199751018757	0.05843614270541801	0.35820481411827915	1.144663535050256
59	0.9833333333333332	0.34530021445469783	0.4567956462986511	1.0658010504695525	0.33963807496173004	0.4820501680218299	1.5072773551554546	0.3362047390835864	0.5193264515238983	1.9231359459677764	0.31902034474025753	0.3262781450166918	1.9177548214316107	0.37635138407039226	0.3298082038964611	1.9117216056566606	0.30872056741336146	0.6086769979629926	2.022346275284238	0.14797892066689372	0.4678790033582101	1.072623356969663	0.14398491954629042	0.49949696856269127	1.5114854316729776	0.14699082988838558	0.5245060096985743	1.9463126477115775	0.15300015791882118	0.3374932155992671	1.9304641861701106	0.09545611055435137	0.3845229236092876	1.94615629857664	0.16136422913510579	0.5577892438934675	1.9935063476039858	0.2503053526655178	0.4450175386472285	0.49684294744716295	0.2463043979351076	0.4271278699159371	0.2559850901086298	0.25186637915145643	0.31289862948265856	0.36404093816621286	0.40087558421313485	0.4365007627540078	0.5819266285022596	0.48989690094098515	0.4552892516295651	0.8419146624189896	0.4103399940429008	0.39273016526711396	1.051443580137963	0.3528008152485815	0.33218614124989354	1.1450414071407322	0.35956536008573464	0.3306304083611924	1.151940357836017	0.3934786157205895	0.3515515116088848	1.1608379886293503	0.08125196830843323	0.45466626932257936	0.5818933068224854	0.01458637491222703	0.4965075788972602	0.841713496408813	0.10153592913415997	0.36183292202436734	1.0298817506505464	0.13172232347741938	0.31587495216789735	1.135045583417386	0.12312124464352335	0.3062565888704944	1.1661753363462823	0.05527634536750728	0.34081356101533616	1.1465920407480295
60	1.0	0.34784403229539523	0.4475046839148278	1.0623281386395425	0.339510295935992	0.4835191647728678	1.5097970850160762	0.3349468324385803	0.5146627783579485	1.9209325923793217	0.3193362266979082	0.3199547679582141	1.9133769422091316	0.3763573137694254	0.32987402697544654	1.9117464000434436	0.30561829042059196	0.6021759592857535	2.0194316094050695	0.14771728856088243	0.4625420607227825	1.071448794372969	0.14264514005820222	0.498042085868268	1.512014655009043	0.14697616382800702	0.5247095004210875	1.9463948899320043	0.15319805116901927	0.33793583007851147	1.93379608610802	0.09654361643528005	0.3804944547881386	1.944746413894403	0.16110908118254882	0.5579591680001308	1.9946629522489967	0.25030559210559344	0.4449954282993718	0.4968332849005263	0.24429466035108233	0.42770258048068477	0.25601659524460835	0.2501182084620593	0.3121839002559138	0.36395489667706254	0.4009152201679721	0.4364558456102115	0.5819467972652572	0.48954082496690854	0.45513327260910147	0.842175756679623	0.40862055311658607	0.39278089054923715	1.051849873007129	0.34994259639115866	0.3320800656259827	1.1472351106987877	0.3596547064513589	0.32997682701065745	1.1531724977592384	0.3981330399545557	0.3333714376298672	1.1519544019364238	0.07998382655240616	0.4533624542210496	0.582707257391643	0.014773399878375882	0.4964123774226169	0.8446436717143941	0.10191585509700768	0.36079078501977124	1.0312437746353131	0.13293074349092684	0.311281623779525	1.141544022442953	0.12420049804418073	0.29944844678847976	1.1682579422347952	0.053278619328333984	0.31764098834543186	1.1453605478041888
